:SAMPLES-PER-SECOND 30
:FULLY-SPECIFIED
:DEGREES
185
root  28.8701 37.3206 -33.7389 -14.5229 79.6079 -18.3926
RightUpLeg  -34.3356 -18.5762 3.16681
RightLeg  66.2484 -3.61347 -9.62611
RightFoot  2.76275 0.482388 -3.84404
RightToes  0.00048216 0.542163 -0.142577
Spine  40.9452 -0.501599 3.95591
Spine1  11.146 1.36139 -1.64176
HEad  -11.8957 0.26474 -5.67675
LeftShoulder1  8.94485 -17.3988 -36.6649
LeftArm  -8.93278 -26.6655 -18.2964
LeftForeArm  -14.6205 -40.2996 -10.349
LeftHand  -0.25398 0.0180481 5.50724
RightShoulder  5.4433 12.144 28.7888
RightArm  -3.13423 25.5022 26.1274
RightForeArm  -59.9218 51.3178 16.8814
RightHand  -0.915135 -0.600275 -22.0024
LeftUpLeg  -40.6006 30.0895 -12.0948
LeftLeg  19.6786 -0.943081 0.0268333
LeftFoot  10.7898 -2.55269 12.6611
LeftToes  1.06245e-005 4.65855e-005 -8.18504e-006
186
root  29.4423 37.4454 -33.8494 -15.9868 79.4139 -21.7041
RightUpLeg  -39.3456 -18.0286 4.87642
RightLeg  63.2248 -2.94844 -6.9915
RightFoot  1.44934 0.315667 -2.654
RightToes  0.00048216 0.542163 -0.142577
Spine  44.7492 -1.08404 5.68392
Spine1  10.9682 2.13627 -3.39233
HEad  -15.8633 -1.57367 -5.56603
LeftShoulder1  9.19206 -18.5169 -35.6251
LeftArm  -9.97799 -33.9534 -17.4254
LeftForeArm  -17.3709 -33.6073 -8.38424
LeftHand  -0.25398 0.0180481 5.50724
RightShoulder  5.35795 12.5042 27.4336
RightArm  -5.10004 31.495 25.2349
RightForeArm  -62.1616 45.3545 13.9389
RightHand  -0.812064 -0.735941 -20.1029
LeftUpLeg  -42.5079 31.3302 -13.2179
LeftLeg  20.3509 -2.41445 -0.659526
LeftFoot  10.2658 -2.53113 12.8742
LeftToes  1.06245e-005 4.65855e-005 -8.18504e-006
187
root  30.0093 37.6117 -33.8881 -17.8382 79.5127 -25.8378
RightUpLeg  -42.5858 -16.9644 6.55723
RightLeg  54.4381 -3.25756 -5.23223
RightFoot  -0.584123 -0.0320496 0.262191
RightToes  0.00048216 0.542163 -0.142577
Spine  48.3487 -1.63389 6.69306
Spine1  10.0824 2.39608 -4.19063
HEad  -19.542 -2.6046 -5.69032
LeftShoulder1  9.35998 -19.3813 -34.7877
LeftArm  -11.7542 -40.3725 -15.6063
LeftForeArm  -20.1735 -27.6132 -6.89788
LeftHand  -0.25398 0.0180481 5.50724
RightShoulder  5.28358 13.0511 25.818
RightArm  -6.71093 37.9316 23.5836
RightForeArm  -64.0191 38.9622 11.4685
RightHand  -0.701165 -0.871115 -17.8531
LeftUpLeg  -44.4117 31.0637 -13.8971
LeftLeg  20.4436 -2.91155 -0.871463
LeftFoot  10.2293 -2.69845 13.7666
LeftToes  1.06245e-005 4.65855e-005 -8.18504e-006
188
root  30.5763 37.7488 -33.8316 -18.0282 79.9986 -28.5174
RightUpLeg  -44.5355 -15.4249 7.59214
RightLeg  42.07 -4.53657 -4.65059
RightFoot  -0.692714 -0.171865 1.80155
RightToes  0.00048216 0.542163 -0.142577
Spine  51.4875 -2.13913 6.93846
Spine1  9.38062 2.45013 -4.81383
HEad  -23.3437 -3.27589 -5.71846
LeftShoulder1  9.37619 -20.2056 -33.4384
LeftArm  -15.4299 -46.065 -12.7711
LeftForeArm  -22.1304 -22.3745 -6.08522
LeftHand  -0.25398 0.0180481 5.50724
RightShoulder  5.1074 13.6659 23.5394
RightArm  -9.11335 43.9552 21.3502
RightForeArm  -65.0073 33.0844 9.61546
RightHand  -0.532369 -1.36269 -15.1146
LeftUpLeg  -46.249 29.4608 -14.1467
LeftLeg  20.8365 -2.31582 -0.642583
LeftFoot  9.46549 -2.56276 13.5684
LeftToes  1.06245e-005 4.65855e-005 -8.18504e-006
189
root  31.1661 37.7602 -33.67 -17.6216 81.193 -30.6975
RightUpLeg  -45.5295 -14.755 8.21601
RightLeg  28.5474 -3.82939 -2.69875
RightFoot  0.758677 -0.397474 3.72448
RightToes  0.00048216 0.542163 -0.142577
Spine  53.7862 -2.81613 7.01118
Spine1  9.81173 2.50113 -5.5452
HEad  -27.4656 -4.21107 -5.29574
LeftShoulder1  9.27185 -21.2093 -31.3923
LeftArm  -23.745 -51.3472 -8.51511
LeftForeArm  -20.5535 -17.3642 -6.58424
LeftHand  -0.25398 0.0180481 5.50724
RightShoulder  4.75693 14.1242 20.5973
RightArm  -13.4288 48.8857 18.1365
RightForeArm  -65.014 28.3083 8.29037
RightHand  -0.359253 -2.08717 -12.2465
LeftUpLeg  -48.5364 27.8805 -14.9556
LeftLeg  21.9536 -2.43842 -0.752515
LeftFoot  8.40212 -2.26373 12.6585
LeftToes  1.06245e-005 4.65855e-005 -8.18504e-006
